<svg width="18" height="18" viewBox="0 0 18 18" fill="none" xmlns="http://www.w3.org/2000/svg">
<path d="M2.75008 0C1.24019 0 7.72601e-05 1.24011 7.72601e-05 2.75V4.03223C-0.00132828 4.13161 0.0170326 4.23028 0.0540929 4.32251C0.0911532 4.41473 0.146174 4.49868 0.215957 4.56945C0.285741 4.64023 0.368895 4.69643 0.460588 4.73479C0.552281 4.77315 0.650683 4.79291 0.750077 4.79291C0.849471 4.79291 0.947874 4.77315 1.03957 4.73479C1.13126 4.69643 1.21441 4.64023 1.2842 4.56945C1.35398 4.49868 1.409 4.41473 1.44606 4.32251C1.48312 4.23028 1.50148 4.13161 1.50008 4.03223V2.75C1.50008 2.05089 2.05096 1.5 2.75008 1.5H15.2501C15.9492 1.5 16.5001 2.05089 16.5001 2.75V9.98926C16.4987 10.0886 16.517 10.1873 16.5541 10.2795C16.5912 10.3718 16.6462 10.4557 16.716 10.5265C16.7857 10.5973 16.8689 10.6535 16.9606 10.6918C17.0523 10.7302 17.1507 10.7499 17.2501 10.7499C17.3495 10.7499 17.4479 10.7302 17.5396 10.6918C17.6313 10.6535 17.7144 10.5973 17.7842 10.5265C17.854 10.4557 17.909 10.3718 17.9461 10.2795C17.9831 10.1873 18.0015 10.0886 18.0001 9.98926V2.75C18.0001 1.24011 16.76 0 15.2501 0H2.75008ZM9.92879 3C6.60729 3 4.50008 6.9645 4.50008 9C4.50008 9 5.94108 4.197 10.0001 4C11.7271 3.916 12.7139 4.71484 12.7139 4.71484C12.7139 4.71484 12.2858 3 9.92879 3ZM9.50008 5C9.10225 5 8.72072 5.15804 8.43942 5.43934C8.15811 5.72064 8.00008 6.10218 8.00008 6.5C8.00008 6.89782 8.15811 7.27936 8.43942 7.56066C8.72072 7.84196 9.10225 8 9.50008 8C9.8979 8 10.2794 7.84196 10.5607 7.56066C10.842 7.27936 11.0001 6.89782 11.0001 6.5C11.0001 6.10218 10.842 5.72064 10.5607 5.43934C10.2794 5.15804 9.8979 5 9.50008 5ZM0.738358 6.6543C0.539616 6.6574 0.350233 6.73926 0.211805 6.8819C0.0733779 7.02454 -0.00277369 7.21629 7.72601e-05 7.41504V15.25C7.72601e-05 16.7599 1.24019 18 2.75008 18H15.2501C16.76 18 18.0001 16.7599 18.0001 15.25V12.7979C18.0015 12.6985 17.9831 12.5998 17.9461 12.5076C17.909 12.4153 17.854 12.3314 17.7842 12.2606C17.7144 12.1898 17.6313 12.1336 17.5396 12.0953C17.4479 12.0569 17.3495 12.0372 17.2501 12.0372C17.1507 12.0372 17.0523 12.0569 16.9606 12.0953C16.8689 12.1336 16.7857 12.1898 16.716 12.2606C16.6462 12.3314 16.5912 12.4153 16.5541 12.5076C16.517 12.5998 16.4987 12.6985 16.5001 12.7979V15.25C16.5001 15.9491 15.9492 16.5 15.2501 16.5H2.75008C2.05096 16.5 1.50008 15.9491 1.50008 15.25V7.41504C1.50152 7.31466 1.48279 7.21501 1.44501 7.12199C1.40723 7.02898 1.35116 6.9445 1.28012 6.87356C1.20909 6.80261 1.12454 6.74665 1.03147 6.70899C0.938414 6.67133 0.838739 6.65273 0.738358 6.6543ZM10.5001 9.125C9.87758 9.434 9.22358 9.5 8.50008 9.5V14C8.50008 14.5525 8.94758 15 9.50008 15C10.0526 15 10.5001 14.5525 10.5001 14V9.125Z" fill="#E2DFDF"/>
</svg>
