<svg width="22" height="22" viewBox="0 0 22 22" fill="none" xmlns="http://www.w3.org/2000/svg">
<path d="M3.32187 0.919922C2.00211 0.919922 0.921875 2.00015 0.921875 3.31992V18.6799C0.921875 19.9997 2.00211 21.0799 3.32187 21.0799H18.6819C20.0016 21.0799 21.0819 19.9997 21.0819 18.6799V3.31992C21.0819 2.00015 20.0016 0.919922 18.6819 0.919922H3.32187ZM3.32187 1.87992H18.6819C19.4827 1.87992 20.1219 2.51905 20.1219 3.31992V18.6799C20.1219 19.4808 19.4827 20.1199 18.6819 20.1199H3.32187C2.521 20.1199 1.88187 19.4808 1.88187 18.6799V3.31992C1.88187 2.51905 2.521 1.87992 3.32187 1.87992ZM5.72187 4.28555C5.19617 4.28555 4.7231 4.44268 4.37281 4.73742C4.02252 5.03216 3.8075 5.47249 3.8075 5.94398C3.8075 6.84023 4.58489 7.53893 5.57375 7.60805L5.57562 7.60898C5.62274 7.62504 5.6721 7.63359 5.72187 7.6343C6.81292 7.6343 7.63625 6.87004 7.63625 5.94398C7.63616 5.93554 7.63585 5.9271 7.63531 5.91867C7.58647 5.00656 6.77329 4.28555 5.72187 4.28555ZM5.72187 5.2343C6.39015 5.2343 6.65402 5.53274 6.68281 5.95617C6.67698 6.36717 6.42272 6.68555 5.72187 6.68555C5.05688 6.68555 4.75625 6.34499 4.75625 5.94398C4.75625 5.74348 4.82941 5.59238 4.98313 5.46305C5.13684 5.33371 5.38358 5.2343 5.72187 5.2343ZM4.28187 8.11992C4.15457 8.11993 4.03249 8.17051 3.94248 8.26052C3.85246 8.35054 3.80189 8.47262 3.80187 8.59992V17.7199C3.80189 17.8472 3.85246 17.9693 3.94248 18.0593C4.03249 18.1493 4.15457 18.1999 4.28187 18.1999H7.16187C7.28917 18.1999 7.41126 18.1493 7.50127 18.0593C7.59129 17.9693 7.64186 17.8472 7.64187 17.7199V14.9046V8.59992C7.64186 8.47262 7.59129 8.35054 7.50127 8.26052C7.41126 8.17051 7.28917 8.11993 7.16187 8.11992H4.28187ZM8.60187 8.11992C8.47457 8.11993 8.35249 8.17051 8.26248 8.26052C8.17246 8.35054 8.12189 8.47262 8.12187 8.59992V17.7199C8.12189 17.8472 8.17246 17.9693 8.26248 18.0593C8.35249 18.1493 8.47457 18.1999 8.60187 18.1999H11.4819C11.6092 18.1999 11.7313 18.1493 11.8213 18.0593C11.9113 17.9693 11.9619 17.8472 11.9619 17.7199V12.9199C11.9619 12.5217 12.0705 12.1255 12.2619 11.8662C12.4532 11.6068 12.6946 11.4511 13.1534 11.4593C13.6266 11.4674 13.8771 11.6295 14.0666 11.884C14.2561 12.1384 14.3619 12.5199 14.3619 12.9199V17.7199C14.3619 17.8472 14.4125 17.9693 14.5025 18.0593C14.5925 18.1493 14.7146 18.1999 14.8419 18.1999H17.7219C17.8492 18.1999 17.9713 18.1493 18.0613 18.0593C18.1513 17.9693 18.2019 17.8472 18.2019 17.7199V12.5655C18.2019 11.144 17.7808 10.018 17.0591 9.25617C16.3373 8.49434 15.3335 8.11992 14.2719 8.11992C13.2629 8.11992 12.4951 8.45827 11.9619 8.80336V8.59992C11.9619 8.47262 11.9113 8.35054 11.8213 8.26052C11.7313 8.17051 11.6092 8.11993 11.4819 8.11992H8.60187ZM4.76187 9.07992H6.68187V14.9046V17.2399H4.76187V9.07992ZM9.08187 9.07992H11.0019V9.82898C11.0019 9.92963 11.0336 10.0277 11.0924 10.1094C11.1512 10.1911 11.2342 10.2522 11.3297 10.2841C11.4251 10.316 11.5282 10.3171 11.6243 10.2873C11.7204 10.2574 11.8047 10.1981 11.8653 10.1177C11.8653 10.1177 12.6191 9.07992 14.2719 9.07992C15.1135 9.07992 15.8352 9.35956 16.3625 9.91617C16.8898 10.4728 17.2419 11.3303 17.2419 12.5655V17.2399H15.3219V12.9199C15.3219 12.3599 15.1877 11.7809 14.8372 11.3102C14.4867 10.8395 13.8972 10.5118 13.1703 10.4993C12.4397 10.4863 11.8407 10.8209 11.4894 11.2971C11.1381 11.7733 11.0019 12.3582 11.0019 12.9199V17.2399H9.08187V9.07992Z" fill="#E2DFDF"/>
</svg>
